<?xml version="1.0" encoding="utf-8"?>
<!-- Generator: Adobe Illustrator 18.1.1, SVG Export Plug-In . SVG Version: 6.00 Build 0)  -->
<svg version="1.1"
	 id="svg2" xmlns:svg="http://www.w3.org/2000/svg" xmlns:rdf="http://www.w3.org/1999/02/22-rdf-syntax-ns#" xmlns:sodipodi="http://sodipodi.sourceforge.net/DTD/sodipodi-0.dtd" xmlns:inkscape="http://www.inkscape.org/namespaces/inkscape" xmlns:dc="http://purl.org/dc/elements/1.1/" xmlns:cc="http://creativecommons.org/ns#" sodipodi:docname="PixelCharacter2.svg" inkscape:version="0.48.4 r9939"
	 xmlns="http://www.w3.org/2000/svg" xmlns:xlink="http://www.w3.org/1999/xlink" x="0px" y="0px" viewBox="-563 329 96 136"
	 enable-background="new -563 329 96 136" xml:space="preserve">
<sodipodi:namedview  showgrid="false" fit-margin-left="0" fit-margin-top="0" bordercolor="#666666" pagecolor="#ffffff" id="base" inkscape:zoom="0.7" borderopacity="1.0" inkscape:cy="129.28838" inkscape:cx="110.04314" fit-margin-bottom="0" fit-margin-right="0" inkscape:window-maximized="1" inkscape:window-y="-8" inkscape:current-layer="layer1" inkscape:document-units="px" inkscape:pageopacity="0.0" inkscape:window-x="-8" inkscape:window-height="718" inkscape:window-width="1024" inkscape:pageshadow="2">
	</sodipodi:namedview>
<g id="layer1" transform="translate(-245.57143,-204.36218)" inkscape:label="Layer 1" inkscape:groupmode="layer">
	<path id="path3947" inkscape:connector-curvature="0" fill="#E0ADAD" d="M-285.4,665.4v-4h-4h-4v-8v-8h-8h-8v-4v-4h-4h-4v-4v-4h4h4
		v-4v-4h4h4v-4v-4h4h4v-4v-4h-4h-4v-4v-4h-4h-4v-4v-4h-4h-4v-16v-16h4h4v-4v-4h4h4v-4v-4h8h8v-4v-4h20h20v4v4h4h4v4v4h4h4v4v4h4h4
		v16v16h-4h-4v4v4h-4h-4v4v4h-4h-4v4v4h4h4v4v4h4h4v4v4h4h4v4v4h-4h-4v4v4h-8h-8v8v8h-4h-4v4v4h-16h-16V665.4z M-285.4,585.4v-4h-4
		h-4v4v4h4h4V585.4z M-245.4,585.4v-4h-4h-4v4v4h4h4V585.4z"/>
	<path id="path3945" inkscape:connector-curvature="0" fill="#C28F8F" d="M-285.4,665.4v-4h-4h-4v-8v-8h-8h-8v-4v-4h-4h-4v-4v-4h4h4
		v-4v-4h4h4v-4v-4h4h4v-4v-4h-4h-4v-4v-4h-4h-4v-4v-4h-4h-4v-16v-16h4h4v-4v-4h4h4v-4v-4h8h8v-4v-4h20h20v4v4h4h4v4v4h4h4v4v4h4h4
		v16v16h-4h-4v4v4h-4h-4v4v4h-4h-4v4v4h4h4v4v4h4h4v4v4h4h4v4v4h-4h-4v4v4h-8h-8v8v8h-4h-4v4v4h-16h-16V665.4z M-293.4,633.4v-4h-8
		h-8v4v4h8h8V633.4z M-229.4,633.4v-4h-8h-8v4v4h8h8V633.4z M-277.4,601.4v-4h8h8v4v4h4h4v-4v-4h4h4v-4v-4h4h4v-4v-4h-4h-4v-4v-4h-4
		h-4v8v8h-4h-4v-8v-8h-8h-8v8v8h-4h-4v-8v-8h-4h-4v4v4h-4h-4v4v4h4h4v4v4h4h4v4v4h4h4V601.4z"/>
	<path id="path3943" inkscape:connector-curvature="0" fill="#FF7F2A" d="M-285.4,665.4v-4h-4h-4v-8v-8h-8h-8v-4v-4h-4h-4v-4v-4h4h4
		v-4v-4h4h4v-4v-4h4h4v-4v-4h-4h-4v-4v-4h-4h-4v-4v-4h-4h-4v-16v-16h4h4v-4v-4h4h4v-4v-4h8h8v-4v-4h20h20v4v4h4h4v4v4h4h4v4v4h4h4
		v16v16h-4h-4v4v4h-4h-4v4v4h-4h-4v4v4h4h4v4v4h4h4v4v4h4h4v4v4h-4h-4v4v4h-8h-8v8v8h-4h-4v4v4h-16h-16V665.4z M-293.4,633.4v-4h-8
		h-8v4v4h8h8V633.4z M-229.4,633.4v-4h-8h-8v4v4h8h8V633.4z M-277.4,601.4v-4h8h8v4v4h8h8v-4v-4h4h4v-8v-8h-4h-4v-4v-4h-4h-4v8v8h-4
		h-4v-8v-8h-8h-8v8v8h-4h-4v-8v-8h-4h-4v4v4h-4h-4v8v8h4h4v4v4h8h8V601.4z"/>
	<path id="path3941" inkscape:connector-curvature="0" fill="#867777" d="M-285.4,665.4v-4h-4h-4v-8v-8h-8h-8v-4v-4h-4h-4v-4v-4h4h4
		v-4v-4h4h4v-4v-4h4h4v-4v-4h-4h-4v-4v-4h-4h-4v-4v-4h-4h-4v-16v-16h4h4v-4v-4h4h4v-4v-4h8h8v-4v-4h20h20v4v4h4h4v4v4h4h4v4v4h4h4
		v16v16h-4h-4v4v4h-4h-4v4v4h-4h-4v4v4h4h4v4v4h4h4v4v4h4h4v4v4h-4h-4v4v4h-8h-8v8v8h-4h-4v4v4h-16h-16V665.4z M-293.4,633.4v-4h-8
		h-8v4v4h8h8V633.4z M-229.4,633.4v-4h-8h-8v4v4h8h8V633.4z M-277.4,601.4v-4h8h8v4v4h8h8v-4v-4h4h4v-4v-4h4h4v-8v-8h-4h-4v-8v-8h-8
		h-8v4v4h-4h-4v-4v-4h-4h-4v-4v-4h-4h-4v4v4h-12h-12v8v8h-4h-4v8v8h4h4v4v4h4h4v4v4h8h8V601.4z M-285.4,585.4v-4h4h4v4v4h-4h-4
		V585.4z M-261.4,585.4v-4h4h4v4v4h-4h-4V585.4z"/>
	<path id="path3939" inkscape:connector-curvature="0" fill="#2AD4FF" d="M-285.4,665.4v-4h-4h-4v-8v-8h-8h-8v-4v-4h-4h-4v-4v-4h4h4
		v-4v-4h4h4v-4v-4h4h4v-4v-4h-4h-4v-4v-4h-4h-4v-4v-4h-4h-4v-16v-16h4h4v-4v-4h4h4v-4v-4h8h8v-4v-4h20h20v4v4h4h4v4v4h4h4v4v4h4h4
		v16v16h-4h-4v4v4h-4h-4v4v4h-4h-4v4v4h4h4v4v4h4h4v4v4h4h4v4v4h-4h-4v4v4h-8h-8v8v8h-4h-4v4v4h-16h-16V665.4z M-293.4,633.4v-4h-8
		h-8v4v4h8h8V633.4z M-229.4,633.4v-4h-8h-8v4v4h8h8V633.4z M-245.4,601.4v-4h4h4v-4v-4h4h4v-8v-8h-4h-4v-8v-8h-8h-8v4v4h-4h-4v-4
		v-4h-4h-4v-4v-4h-4h-4v4v4h-12h-12v8v8h-4h-4v8v8h4h4v4v4h4h4v4v4h24h24V601.4z M-285.4,585.4v-4h4h4v4v4h-4h-4V585.4z
		 M-261.4,585.4v-4h4h4v4v4h-4h-4V585.4z"/>
	<path id="path3937" inkscape:connector-curvature="0" fill="#C87137" d="M-285.4,665.4v-4h-4h-4v-8v-8h-8h-8v-4v-4h-4h-4v-4v-4h4h4
		v-4v-4h4h4v-4v-4h4h4v-4v-4h-4h-4v-4v-4h-4h-4v-4v-4h-4h-4v-16v-16h4h4v-4v-4h4h4v-4v-4h8h8v-4v-4h20h20v4v4h4h4v4v4h4h4v4v4h4h4
		v16v16h-4h-4v4v4h-4h-4v4v4h-4h-4v4v4h4h4v4v4h4h4v4v4h4h4v4v4h-4h-4v4v4h-8h-8v8v8h-4h-4v4v4h-16h-16V665.4z M-293.4,633.4v-4h-8
		h-8v4v4h8h8V633.4z M-229.4,633.4v-4h-8h-8v4v4h8h8V633.4z M-253.4,617.4v-4h-16h-16v4v4h16h16V617.4z M-245.4,601.4v-4h4h4v-4v-4
		h4h4v-8v-8h-4h-4v-8v-8h-8h-8v4v4h-4h-4v-4v-4h-4h-4v-4v-4h-4h-4v4v4h-12h-12v8v8h-4h-4v8v8h4h4v4v4h4h4v4v4h24h24V601.4z
		 M-285.4,585.4v-4h4h4v4v4h-4h-4V585.4z M-261.4,585.4v-4h4h4v4v4h-4h-4V585.4z"/>
	<path id="path3935" inkscape:connector-curvature="0" fill="#0088AA" d="M-285.4,665.4v-4h-4h-4v-8v-8h-8h-8v-4v-4h-4h-4v-4v-4h4h4
		v-4v-4h4h4v-4v-4h4h4v-4v-4h-4h-4v-4v-4h-4h-4v-4v-4h-4h-4v-16v-16h4h4v-4v-4h4h4v-4v-4h8h8v-4v-4h20h20v4v4h4h4v4v4h4h4v4v4h4h4
		v16v16h-4h-4v4v4h-4h-4v4v4h-4h-4v4v4h4h4v4v4h4h4v4v4h4h4v4v4h-4h-4v4v4h-8h-8v8v8h-4h-4v4v4h-16h-16V665.4z M-293.4,633.4v-4h-8
		h-8v4v4h8h8V633.4z M-229.4,633.4v-4h-8h-8v4v4h8h8V633.4z M-253.4,617.4v-4h-16h-16v4v4h16h16V617.4z M-245.4,601.4v-4h4h4v-4v-4
		h4h4v-16v-16h-8h-8v-4v-4h-4h-4v-4v-4h-12h-12v4v4h-8h-8v4v4h-4h-4v4v4h-4h-4v12v12h4h4v4v4h4h4v4v4h24h24V601.4z M-285.4,585.4v-4
		h4h4v4v4h-4h-4V585.4z M-261.4,585.4v-4h4h4v4v4h-4h-4V585.4z"/>
	<path id="path3933" inkscape:connector-curvature="0" fill="#8D0F27" d="M-285.4,665.4v-4h-4h-4v-8v-8h-8h-8v-4v-4h-4h-4v-4v-4h4h4
		v-4v-4h4h4v-4v-4h4h4v-4v-4h-4h-4v-4v-4h-4h-4v-4v-4h-4h-4v-16v-16h4h4v-4v-4h4h4v-4v-4h8h8v-4v-4h20h20v4v4h4h4v4v4h4h4v4v4h4h4
		v16v16h-4h-4v4v4h-4h-4v4v4h-4h-4v4v4h4h4v4v4h4h4v4v4h4h4v4v4h-4h-4v4v4h-8h-8v8v8h-4h-4v4v4h-16h-16V665.4z M-293.4,633.4v-4h8h8
		v4v4h8h8v-4v-4h8h8v4v4h8h8v-4v-4h-8h-8v-4v-4h-4h-4v-4v-4h-16h-16v4v4h-4h-4v4v4h-8h-8v4v4h8h8V633.4z M-245.4,601.4v-4h4h4v-4v-4
		h4h4v-16v-16h-8h-8v-4v-4h-4h-4v-4v-4h-12h-12v4v4h-8h-8v4v4h-4h-4v4v4h-4h-4v12v12h4h4v4v4h4h4v4v4h24h24V601.4z M-285.4,585.4v-4
		h4h4v4v4h-4h-4V585.4z M-261.4,585.4v-4h4h4v4v4h-4h-4V585.4z"/>
	<path id="path3931" inkscape:connector-curvature="0" fill="#3B3B3B" d="M-285.4,665.4v-4h-4h-4v-8v-8h-8h-8v-4v-4h-4h-4v-4v-4h4h4
		v-4v-4h4h4v-4v-4h4h4v-4v-4h-4h-4v-4v-4h-4h-4v-4v-4h-4h-4v-16v-16h4h4v-4v-4h4h4v-4v-4h8h8v-4v-4h20h20v4v4h4h4v4v4h4h4v4v4h4h4
		v16v16h-4h-4v4v4h-4h-4v4v4h-4h-4v4v4h4h4v4v4h4h4v4v4h4h4v4v4h-4h-4v4v4h-8h-8v8v8h-4h-4v4v4h-16h-16V665.4z M-293.4,633.4v-4h8h8
		v4v4h8h8v-4v-4h8h8v4v4h8h8v-4v-4h-8h-8v-4v-4h-4h-4v-4v-4h-16h-16v4v4h-4h-4v4v4h-8h-8v4v4h8h8V633.4z M-245.4,601.4v-4h4h4v-4v-4
		h4h4v-16v-16h-8h-8v-4v-4h-4h-4v-4v-4h-12h-12v4v4h-8h-8v4v4h-4h-4v4v4h-4h-4v12v12h4h4v4v4h4h4v4v4h24h24V601.4z"/>
	<path id="path3929" inkscape:connector-curvature="0" fill="#552200" d="M-285.4,665.4v-4h-4h-4v-8v-8h-8h-8v-4v-4h-4h-4v-4v-4h4h4
		v-4v-4h4h4v-4v-4h4h4v-4v-4h-4h-4v-4v-4h-4h-4v-4v-4h-4h-4v-16v-16h4h4v-4v-4h4h4v-4v-4h8h8v-4v-4h20h20v4v4h4h4v4v4h4h4v4v4h4h4
		v16v16h-4h-4v4v4h-4h-4v4v4h-4h-4v4v4h4h4v4v4h4h4v4v4h4h4v4v4h-4h-4v4v4h-8h-8v8v8h-4h-4v4v4h-16h-16V665.4z M-253.4,649.4v-4h-4
		h-4v-8v-8h8h8v4v4h8h8v-4v-4h-8h-8v-4v-4h-4h-4v-4v-4h-16h-16v4v4h-4h-4v4v4h-8h-8v4v4h8h8v-4v-4h8h8v8v8h-4h-4v4v4h16h16V649.4z
		 M-245.4,601.4v-4h4h4v-4v-4h4h4v-16v-16h-8h-8v-4v-4h-4h-4v-4v-4h-12h-12v4v4h-8h-8v4v4h-4h-4v4v4h-4h-4v12v12h4h4v4v4h4h4v4v4h24
		h24V601.4z"/>
	<path id="path3927" inkscape:connector-curvature="0" fill="#004455" d="M-285.4,665.4v-4h-4h-4v-8v-8h-8h-8v-4v-4h-4h-4v-4v-4h4h4
		v-4v-4h4h4v-4v-4h4h4v-4v-4h-4h-4v-4v-4h-4h-4v-4v-4h-4h-4v-16v-16h4h4v-4v-4h4h4v-4v-4h8h8v-4v-4h20h20v4v4h4h4v4v4h4h4v4v4h4h4
		v16v16h-4h-4v4v4h-4h-4v4v4h-4h-4v4v4h4h4v4v4h4h4v4v4h4h4v4v4h-4h-4v4v4h-8h-8v8v8h-4h-4v4v4h-16h-16V665.4z M-253.4,649.4v-4h-4
		h-4v-8v-8h8h8v4v4h8h8v-4v-4h-8h-8v-4v-4h-4h-4v-4v-4h-16h-16v4v4h-4h-4v4v4h-8h-8v4v4h8h8v-4v-4h8h8v8v8h-4h-4v4v4h16h16V649.4z
		 M-245.4,601.4v-4h4h4v-4v-4h4h4v-16v-16h-4h-4v-4v-4h-4h-4v-4v-4h-20h-20v4v4h-8h-8v4v4h-4h-4v16v16h4h4v4v4h4h4v4v4h24h24V601.4z
		"/>
	<path id="path3925" inkscape:connector-curvature="0" fill="#5C320E" d="M-285.4,665.4v-4h-4h-4v-8v-8h-8h-8v-4v-4h-4h-4v-4v-4h4h4
		v-4v-4h4h4v-4v-4h4h4v-4v-4h-4h-4v-4v-4h-4h-4v-4v-4h-4h-4v-16v-16h4h4v-4v-4h4h4v-4v-4h8h8v-4v-4h20h20v4v4h4h4v4v4h4h4v4v4h4h4
		v16v16h-4h-4v4v4h-4h-4v4v4h-4h-4v4v4h4h4v4v4h4h4v4v4h4h4v4v4h-4h-4v4v4h-8h-8v8v8h-4h-4v4v4h-16h-16V665.4z M-253.4,649.4v-4h-4
		h-4v-4v-4h4h4v-4v-4h4h4v4v4h8h8v-4v-4h-4h-4v-4v-4h-8h-8v-4v-4h-16h-16v4v4h-8h-8v4v4h-4h-4v4v4h8h8v-4v-4h4h4v4v4h4h4v4v4h-4h-4
		v4v4h16h16V649.4z M-245.4,601.4v-4h4h4v-4v-4h4h4v-16v-16h-4h-4v-4v-4h-4h-4v-4v-4h-20h-20v4v4h-8h-8v4v4h-4h-4v16v16h4h4v4v4h4h4
		v4v4h24h24V601.4z"/>
	<path id="path3923" inkscape:connector-curvature="0" fill="#1D1D1D" d="M-285.4,665.4v-4h-4h-4v-8v-8h-8h-8v-4v-4h-4h-4v-4v-4h4h4
		v-4v-4h4h4v-4v-4h4h4v-4v-4h-4h-4v-4v-4h-4h-4v-4v-4h-4h-4v-16v-16h4h4v-4v-4h4h4v-4v-4h8h8v-4v-4h20h20v4v4h4h4v4v4h4h4v4v4h4h4
		v16v16h-4h-4v4v4h-4h-4v4v4h-4h-4v4v4h4h4v4v4h4h4v4v4h4h4v4v4h-4h-4v4v4h-8h-8v8v8h-4h-4v4v4h-16h-16V665.4z M-277.4,657.4v-4h8h8
		v4v4h4h4v-8v-8h-4h-4v-4v-4h4h4v-4v-4h4h4v4v4h8h8v-4v-4h-4h-4v-4v-4h-8h-8v-4v-4h-16h-16v4v4h-8h-8v4v4h-4h-4v4v4h8h8v-4v-4h4h4v4
		v4h4h4v4v4h-4h-4v8v8h4h4V657.4z M-245.4,601.4v-4h4h4v-4v-4h4h4v-16v-16h-4h-4v-4v-4h-4h-4v-4v-4h-20h-20v4v4h-8h-8v4v4h-4h-4v16
		v16h4h4v4v4h4h4v4v4h24h24V601.4z"/>
	<path id="path3921" inkscape:connector-curvature="0" fill="#3E1400" d="M-285.4,665.4v-4h-4h-4v-8v-8h-8h-8v-4v-4h-4h-4v-4v-4h4h4
		v-4v-4h4h4v-4v-4h4h4v-4v-4h-4h-4v-4v-4h-4h-4v-4v-4h-4h-4v-16v-16h4h4v-4v-4h4h4v-4v-4h8h8v-4v-4h20h20v4v4h4h4v4v4h4h4v4v4h4h4
		v16v16h-4h-4v4v4h-4h-4v4v4h-4h-4v4v4h4h4v4v4h4h4v4v4h4h4v4v4h-4h-4v4v4h-8h-8v8v8h-4h-4v4v4h-16h-16V665.4z M-277.4,657.4v-4h8h8
		v4v4h4h4v-16v-16h4h4v4v4h8h8v-4v-4h-4h-4v-4v-4h-8h-8v-4v-4h-16h-16v4v4h-8h-8v4v4h-4h-4v4v4h8h8v-4v-4h4h4v16v16h4h4V657.4z
		 M-245.4,601.4v-4h4h4v-4v-4h4h4v-16v-16h-4h-4v-4v-4h-4h-4v-4v-4h-20h-20v4v4h-8h-8v4v4h-4h-4v16v16h4h4v4v4h4h4v4v4h24h24V601.4z
		"/>
	<path id="path3919" inkscape:connector-curvature="0" d="M-285.4,665.4v-4h-4h-4v-8v-8h-8h-8v-4v-4h-4h-4v-4v-4h4h4v-4v-4h4h4v-4
		v-4h4h4v-4v-4h-4h-4v-4v-4h-4h-4v-4v-4h-4h-4v-16v-16h4h4v-4v-4h4h4v-4v-4h8h8v-4v-4h20h20v4v4h4h4v4v4h4h4v4v4h4h4v16v16h-4h-4v4
		v4h-4h-4v4v4h-4h-4v4v4h4h4v4v4h4h4v4v4h4h4v4v4h-4h-4v4v4h-8h-8v8v8h-4h-4v4v4h-16h-16V665.4z M-253.4,645.4v-16h4h4v4v4h8h8v-4
		v-4h-4h-4v-4v-4h-8h-8v-4v-4h-16h-16v4v4h-8h-8v4v4h-4h-4v4v4h8h8v-4v-4h4h4v16v16h16h16V645.4z M-245.4,601.4v-4h4h4v-4v-4h4h4
		v-16v-16h-4h-4v-4v-4h-4h-4v-4v-4h-20h-20v4v4h-8h-8v4v4h-4h-4v16v16h4h4v4v4h4h4v4v4h24h24V601.4z"/>
</g>
</svg>
